<?xml version="1.0" encoding="UTF-8" standalone="no"?>
<svg
   viewBox="0 0 40 40"
   version="1.1"
   id="svg4440"
   sodipodi:docname="linklang-logo-evenodd.svg"
   inkscape:version="1.2.2 (b0a8486541, 2022-12-01)"
   xmlns:inkscape="http://www.inkscape.org/namespaces/inkscape"
   xmlns:sodipodi="http://sodipodi.sourceforge.net/DTD/sodipodi-0.dtd"
   xmlns="http://www.w3.org/2000/svg"
   xmlns:svg="http://www.w3.org/2000/svg">
  <defs
     id="defs4444" />
  <sodipodi:namedview
     id="namedview4442"
     pagecolor="#505050"
     bordercolor="#ffffff"
     borderopacity="1"
     inkscape:showpageshadow="0"
     inkscape:pageopacity="0"
     inkscape:pagecheckerboard="1"
     inkscape:deskcolor="#505050"
     showgrid="false"
     inkscape:zoom="21.125"
     inkscape:cx="19.668639"
     inkscape:cy="20"
     inkscape:window-width="1920"
     inkscape:window-height="1047"
     inkscape:window-x="0"
     inkscape:window-y="0"
     inkscape:window-maximized="1"
     inkscape:current-layer="svg4440" />
  <path
     fill="#094634"
     fill-rule="evenodd"
     d="M 10,0        L 30,0        A 10,10 0 0 1 40,10        L 40,30        A 10,10 0 0 1 30,40        L 10,40        A 10,10 0 0 1 0,30        L 0,10        A 10,10 0 0 1 10,0        Z        M 20,20        A 6,6 0 1 0 8,20        A 6,6 0 1 0 20,20        Z        M 32,20        A 6,6 0 1 0 20,20        A 6,6 0 1 0 32,20        Z"
     id="path4438"
     style="opacity:1" />
  <rect
     x="17.855251"
     y="12.196282"
     width="12"
     height="6"
     fill="#094634"
     id="rect4932"
     transform="rotate(12.502032)" />
</svg>
